# xmcd
#
# Track frame offsets: 
#        150
#        10773
#        24635
#        36808
#        46614
#        60517
#        74330
#        85452
#        97681
#        109722
#        119720
#        129050
#        138338
#        148793
#        160209
#        171659
#        185383
#        199003
#        208329
#        218642
#        229829
#        243251
#        252793
#        266346
#        278433
#        287496
#        297828
#        311213
#
# Disc length: 4439 seconds
#
# Revision: 0
# Processed by: cddbd v1.5.2PL0 Copyright (c) Steve Scherf et al.
# Submitted via: ExactAudioCopy v0.95b3
#
DISCID=9311551c
DTITLE=The Beatles  - Revolver Deluxe 07 Purple Chick - Disc 1 - stere
DTITLE=o  FLAC
DYEAR=1900
DGENRE=
TTITLE0=Paperback Writer (stereo)
TTITLE1=Rain (stereo)
TTITLE2=Taxman (stereo)
TTITLE3=Eleanor Rigby (stereo)
TTITLE4=I'm Only Sleeping (stereo)
TTITLE5=Love You To (stereo)
TTITLE6=Here, There and Everywhere (stereo)
TTITLE7=Yellow Submarine (stereo)
TTITLE8=She Said She Said (stereo)
TTITLE9=Good Day Sunshine (stereo)
TTITLE10=And Your Bird Can Sing (stereo)
TTITLE11=For No One (stereo)
TTITLE12=Doctor Robert (stereo)
TTITLE13=I Want To Tell You (stereo)
TTITLE14=Got To Get You Into My Life (stereo)
TTITLE15=Tomorrow Never Knows (stereo)
TTITLE16=I'm Only Sleeping stereo (US stereo)
TTITLE17=And Your Bird Can Sing (US stereo)
TTITLE18=Doctor Robert (US stereo)
TTITLE19=Paperback Writer (ant vid mix)
TTITLE20=Rain (ant vid mix)
TTITLE21=Eleanor Rigby (Yellow Sub Songtrack)
TTITLE22=Love You To (Yellow Sub Songtrack)
TTITLE23=Yellow Submarine (Yellow Sub Songtrack)
TTITLE24=For No One (ant dvd)
TTITLE25=Paperback Writer (ant dvd)
TTITLE26=Rain (ant dvd)
TTITLE27=Ant medley
EXTD=
EXTT0=
EXTT1=
EXTT2=
EXTT3=
EXTT4=
EXTT5=
EXTT6=
EXTT7=
EXTT8=
EXTT9=
EXTT10=
EXTT11=
EXTT12=
EXTT13=
EXTT14=
EXTT15=
EXTT16=
EXTT17=
EXTT18=
EXTT19=
EXTT20=
EXTT21=
EXTT22=
EXTT23=
EXTT24=
EXTT25=
EXTT26=
EXTT27=
PLAYORDER=
